<?xml version="1.0" encoding="UTF-8" standalone="no"?>
<!-- Created with Inkscape (http://www.inkscape.org/) -->

<svg
   width="14.923434mm"
   height="14.809879mm"
   viewBox="0 0 14.923434 14.809879"
   version="1.1"
   id="svg1"
   xml:space="preserve"
   inkscape:version="1.3.2 (091e20e, 2023-11-25, custom)"
   sodipodi:docname="raven.svg"
   xmlns:inkscape="http://www.inkscape.org/namespaces/inkscape"
   xmlns:sodipodi="http://sodipodi.sourceforge.net/DTD/sodipodi-0.dtd"
   xmlns="http://www.w3.org/2000/svg"
   xmlns:svg="http://www.w3.org/2000/svg"><sodipodi:namedview
     id="namedview1"
     pagecolor="#ffffff"
     bordercolor="#000000"
     borderopacity="0.25"
     inkscape:showpageshadow="2"
     inkscape:pageopacity="0.0"
     inkscape:pagecheckerboard="0"
     inkscape:deskcolor="#d1d1d1"
     inkscape:document-units="mm"
     inkscape:zoom="3.2605219"
     inkscape:cx="-32.663483"
     inkscape:cy="27.756293"
     inkscape:window-width="1920"
     inkscape:window-height="1171"
     inkscape:window-x="-9"
     inkscape:window-y="-9"
     inkscape:window-maximized="1"
     inkscape:current-layer="layer1" /><defs
     id="defs1" /><g
     inkscape:label="Warstwa 1"
     inkscape:groupmode="layer"
     id="layer1"
     transform="translate(-95.080687,-147.59313)"><g
       style="fill:#2153eb"
       id="g4"
       transform="translate(43.661193,133.52701)"><g
         id="g3"
         transform="translate(0.16229508,0.64918032)"><g
           id="g2"
           fill="currentColor"
           transform="matrix(0.04140618,0,0,0.0447169,171.02036,18.464206)"><g
             id="g1"
             inkscape:transform-center-x="-24.993443"
             inkscape:transform-center-y="5.842623"
             transform="translate(-2697.9743,-127.48256)">
	<path
   d="m 164.52787,150.509 c 2.597,-11.582 1.212,-22.53 -0.127,-33.119 -1.144,-9.042 -2.223,-17.581 -0.591,-25.51 3.869,-18.796 -8.128,-39.427 -19.013,-55.301 -12.143,-17.708 -25.283,-20.22 -42.522,-21.836 -0.932,-0.087 -1.884,-0.132 -2.829004,-0.132 -11.568,0 -21.231,6.474 -26.423,9.952 -1.347,0.902 -2.739,1.835 -3.147,1.917 -0.646,0.129 -2.158,0.149 -4.071,0.175 -5.138,0.068 -13.736,0.183 -23.974,2.376 -9.976,2.138 -17.97,7.219 -17.821,11.327 0.056,1.556 1.194,3.561 6.298,4.274 10.694,1.495 20.149,4.392 27.746,6.719 1.502,0.46 2.911,0.892 4.218,1.277 8.22,2.426 15.813,5.741 18.413,19.486 1.809,9.558 -14.625,20.525 -29.123,30.202 -6.014,4.013 -11.693,7.804 -16.268,11.521 -15.954,12.963 -46.374,39.235 -56.119,48.467 -9.237,8.751 -86.917996,62.013 -107.798996,72.199 -21.338,10.409 -42.134,26.726 -47.345,37.147 -1.168,2.336 -1.418,3.816 -0.812,4.797 0.265,0.428 0.812,0.938 1.915,0.938 1.313,0 3.111,-0.757 4.662,-1.491 0.002,0.188 0.037,0.381 0.119,0.578 0.463,1.119 1.955,1.262 3.203,1.262 3.411,0 10.521,-1.401 19.192,-3.771 -3.114,2.302 -9.293,6.265 -14.915,9.871 -22.224,14.26 -32.093,21.185 -31.813,24.534 0.154,1.855 1.38,4.066 6.345,4.066 3.048,0 6.762,-0.783 9.747,-1.412 1.549,-0.326 2.891,-0.609 3.818,-0.717 -0.338,0.709 -1.205,1.928 -1.82,2.794 -1.992,2.802 -4.052,5.7 -2.585,7.534 0.44,0.551 1.189,0.819 2.287,0.819 3.285,0 10.301,-2.437 17.086,-4.794 4.844,-1.683 9.419,-3.272 12.184,-3.825 4.222,-0.844 24.688,-11.443 44.479,-21.693 14.765996,-7.647 31.501996,-16.314 33.302996,-16.512 3.507,0 31.84,-2.067 49.711,-7.174 3.983,-1.138 8.238,-1.715 12.6469999,-1.715 10.719,0 21.0660001,3.333 29.9310001,6.643 -0.055,2.158 -0.109,4.802 -0.165,8.048 -0.151,8.905 -0.218,18.128 -0.196,20.565 0.029,3.404 6.457,9.411 15.534,17.525 3.734,3.338 8.317,7.436 9.159,8.91 -1.521,0.946 -3.853,0.974 -6.745,1.009 -5.052,0.061 -11.97,0.144 -19.146,5.616 -4.179,3.187 -6.942,7.744 -7.569,9.963 -0.059,0.205 -0.234,0.828 0.152,1.339 0.215,0.283 0.545,0.446 0.906,0.446 0.301,0 0.604,-0.112 0.93,-0.342 l 0.737,-0.527 c 2.341,-1.677 7.822,-5.605 10.766,-6.725 3.979,-1.514 6.902,-2.131 10.092,-2.131 4.188,0 9.138,1.076 16.806,3.063 4.696,1.216 8.705,1.808 12.256,1.808 4.619,0 7.973,-0.978 11.523,-2.013 4.131,-1.204 8.401,-2.449 15.383,-2.449 1.297,0 2.665,0.044 4.067,0.132 7.649004,0.479 14.502004,4.462 17.796004,6.376 1.418,0.824 1.847,1.073 2.311,1.073 l 0.706,-0.028 0.265,-0.59 c 0.347,-0.771 -0.089,-1.261 -2.182,-3.619 -3.516,-3.959 -6.806,-6.381 -9.986,-7.947 1.944,-0.378 3.739,-0.896 5.584,-1.434 4.131,-1.204 8.401,-2.449 15.382,-2.449 1.297,0 2.665,0.044 4.067,0.132 7.649,0.479 14.503,4.462 17.796,6.375 1.419,0.825 1.848,1.073 2.312,1.073 l 0.706,-0.028 0.265,-0.59 c 0.347,-0.771 -0.089,-1.261 -2.182,-3.619 -7.444,-8.383 -13.889,-9.927 -20.382,-10.875 -2.55,-0.371 -4.478,-1.228 -4.688,-2.082 -0.173,-0.699 0.774,-1.882 2.534,-3.164 3.122,-2.274 6.262,-3.427 9.333,-3.427 5.441,0 8.826,3.572 9.194,4.93 0.166,0.616 0.653,0.834 1.021,0.834 0.375,0 0.87,-0.228 1.03,-0.868 0.301,-1.196 -0.06,-6.437 -4.487,-8.808 -2.211,-1.185 -5.633,-1.837 -9.636,-1.837 -9.456,0 -19.744,3.326 -28.221,9.011 -1.689,-0.342 -3.622,-0.526 -5.722,-0.526 -0.583004,0 -1.170004,0.018 -1.758004,0.043 -7.241,-5.788 -19.983,-19.26 -20.717,-23.842 -0.483,-3.021 -0.765,-12.566 -0.765,-21.797 0,-0.035 0,-0.068 0,-0.103 6,-2.984 12.091,-6.5 19.155,-10.656 35.360004,-20.796 63.799004,-86.286 68.592004,-107.668 z M 56.391866,278.882 c -0.079,6.328 -0.111,11.825 -0.095,13.628 0.03,3.403 6.457,9.41 15.533,17.524 3.53,3.155 7.813,6.985 8.984,8.641 -0.794,0.338 -1.582,0.693 -2.362,1.069 -1.208,0.168 -2.619,0.19 -4.206,0.209 -3.271,0.04 -7.325,0.098 -11.724,1.612 -7.352,-6.351 -18.116,-18.122 -18.793,-22.343 -0.366,-2.289 -0.5,-8.327 -0.576,-15.135 2.92,-1.001 7.269,-2.596 13.239,-5.205 z"
   id="path1"
   fill="#2153eb" />
</g></g></g></g></g></svg>
