<svg xmlns="http://www.w3.org/2000/svg" xmlns:xlink="http://www.w3.org/1999/xlink" xml:space="preserve" width="260.667" height="50" fill="#2153eb" viewBox="0 0 230.715 10.798"><g transform="translate(28.56 -14.604)"><text xml:space="preserve" x="-31.249" y="34.904" style="font-size:39.8151px;font-family:&quot;Berlin Sans FB&quot;;-inkscape-font-specification:&quot;Berlin Sans FB, Normal&quot;;fill:#2153eb;fill-opacity:1;fill-rule:nonzero;stroke-width:.0957951" transform="scale(1.03828 .96313)"><tspan x="-31.249" y="34.904" style="font-style:normal;font-variant:normal;font-weight:600;font-stretch:normal;font-size:39.8151px;font-family:&quot;Montserrat Alternates&quot;;-inkscape-font-specification:&quot;Montserrat Alternates, Semi-Bold&quot;;font-variant-ligatures:normal;font-variant-caps:normal;font-variant-numeric:normal;font-variant-east-asian:normal;fill:#2153eb;fill-opacity:1;fill-rule:nonzero;stroke-width:.0957951">RavenLens</tspan></text><text xml:space="preserve" id="a" x="-31.249" y="34.904" style="font-size:39.8151px;font-family:&quot;Berlin Sans FB&quot;;-inkscape-font-specification:&quot;Berlin Sans FB, Normal&quot;;fill:#2153eb;fill-opacity:1;fill-rule:nonzero;stroke-width:.0957951" transform="scale(1.03828 .96313)"><tspan x="-31.249" y="34.904" style="font-style:normal;font-variant:normal;font-weight:600;font-stretch:normal;font-size:39.8151px;font-family:&quot;Montserrat Alternates&quot;;-inkscape-font-specification:&quot;Montserrat Alternates, Semi-Bold&quot;;font-variant-ligatures:normal;font-variant-caps:normal;font-variant-numeric:normal;font-variant-east-asian:normal;fill:#2153eb;fill-opacity:1;fill-rule:nonzero;stroke-width:.0957951">RavenLens</tspan></text><use xlink:href="#a"/><g style="fill:#2353eb;fill-opacity:1"><path d="M20.556 1.96c-1.786 0-3.24 1.416-3.24 3.155 0 1.74 1.454 3.155 3.24 3.155.546 0 1.083-.126 1.537-.37a.926.901 0 0 0 .12.117l.926.902A.944.92 0 1 0 24.47 7.62l-.925-.901a.926.901 0 0 0-.148-.118 3.05 3.05 0 0 0 .407-1.496c0-1.74-1.453-3.155-3.24-3.155zm0 .902c1.287 0 2.314 1 2.314 2.253 0 .595-.222 1.145-.61 1.55l-.029.027a.926.901 0 0 0-.12.118c-.407.36-.962.567-1.564.567-1.287 0-2.314-1-2.314-2.253 0-1.253 1.027-2.253 2.314-2.253z" style="fill:#2353eb;fill-opacity:1;stroke-width:.913392" transform="matrix(3.59065 0 0 3.35563 -62.928 6.241)"/></g></g><path d="M51.35-10.626c.12-.559.057-1.086-.005-1.597-.053-.436-.103-.847-.028-1.23.18-.906-.377-1.9-.881-2.665-.563-.854-1.173-.975-1.972-1.053a1.364 1.364 0 0 0-.131-.006c-.537 0-.985.312-1.225.48-.063.043-.127.088-.146.092-.03.006-.1.007-.19.008a5.23 5.23 0 0 0-1.11.115c-.463.103-.834.348-.827.546.003.075.055.172.292.206.496.072.934.212 1.286.324l.196.061c.381.117.733.277.854.94.084.46-.678.99-1.35 1.456a10.4 10.4 0 0 0-.755.555c-.74.625-2.15 1.891-2.602 2.336-.428.422-4.03 2.99-4.998 3.48-.99.502-1.954 1.289-2.196 1.791-.054.113-.066.184-.037.231.012.021.037.046.088.046a.588.588 0 0 0 .217-.072c0 .009.001.018.005.028.021.054.09.06.149.06.158 0 .487-.067.89-.181a16.9 16.9 0 0 1-.692.475c-1.03.688-1.488 1.022-1.475 1.183.007.09.064.196.294.196.141 0 .313-.038.452-.068.072-.016.134-.03.177-.034-.016.034-.056.092-.084.134-.093.135-.188.275-.12.363.02.027.055.04.106.04.152 0 .477-.118.792-.231.225-.081.437-.158.565-.185.196-.04 1.145-.551 2.062-1.045.685-.369 1.461-.787 1.545-.796.162 0 1.476-.1 2.305-.346a2.05 2.05 0 0 1 .586-.083c.497 0 .977.16 1.388.32l-.008.388c-.007.43-.01.874-.009.992.001.164.3.453.72.845.174.16.386.358.425.429-.07.046-.179.047-.313.049-.234.003-.555.007-.887.27a1.107 1.107 0 0 0-.351.48c-.003.01-.011.04.007.065a.05.05 0 0 0 .042.022.073.073 0 0 0 .043-.017l.034-.025c.109-.081.363-.27.5-.324a1.21 1.21 0 0 1 .467-.103c.194 0 .424.052.78.148.217.058.403.087.568.087.214 0 .37-.047.534-.097.192-.058.39-.118.713-.118.06 0 .124.002.189.006.355.023.672.215.825.307.066.04.086.052.107.052l.033-.001.012-.029c.016-.037-.004-.06-.101-.174a1.523 1.523 0 0 0-.463-.383c.09-.019.173-.043.259-.07.191-.057.39-.117.713-.117.06 0 .124.002.189.006.354.023.672.215.825.307.066.04.086.052.107.052l.033-.001.012-.029c.016-.037-.004-.06-.101-.174-.345-.404-.644-.479-.945-.525-.118-.017-.208-.059-.218-.1-.008-.034.036-.09.118-.152a.72.72 0 0 1 .433-.166c.252 0 .409.173.426.238.008.03.03.04.047.04.018 0 .04-.01.048-.042.014-.057-.003-.31-.208-.424a.96.96 0 0 0-.447-.089c-.438 0-.915.16-1.308.435a1.3 1.3 0 0 0-.347-.024c-.336-.279-.927-.928-.96-1.149-.023-.146-.036-.606-.036-1.05v-.006c.278-.143.56-.313.888-.513 1.64-1.003 2.958-4.16 3.18-5.19zm-5.014 6.188c-.003.305-.005.57-.004.657.001.164.3.453.72.844.164.153.363.337.417.417a2.526 2.526 0 0 0-.11.052 1.6 1.6 0 0 1-.195.01c-.151.002-.34.004-.543.077-.341-.306-.84-.873-.872-1.077a7.89 7.89 0 0 1-.026-.73c.135-.048.337-.124.613-.25z"/></svg>